<?xml version="1.0" standalone="no"?>
<!DOCTYPE svg PUBLIC "-//W3C//DTD SVG 20010904//EN"
 "http://www.w3.org/TR/2001/REC-SVG-20010904/DTD/svg10.dtd">
<svg version="1.0" xmlns="http://www.w3.org/2000/svg"
 width="924.000000pt" height="924.000000pt" viewBox="0 0 924.000000 924.000000"
 preserveAspectRatio="xMidYMid meet">
<metadata>
Created by potrace 1.14, written by Peter Selinger 2001-2017
</metadata>
<g transform="translate(0.000000,924.000000) scale(0.100000,-0.100000)"
fill="#000000" stroke="none">
<path d="M6056 6892 c-60 -147 -114 -280 -122 -297 -7 -16 -47 -115 -90 -220
-119 -297 -414 -1018 -424 -1040 -5 -11 -23 -56 -41 -100 -17 -44 -37 -93 -44
-110 -8 -16 -23 -52 -33 -80 -30 -77 -111 -276 -128 -312 -7 -17 -14 -34 -14
-38 0 -3 -8 -25 -19 -48 -10 -23 -87 -211 -171 -417 -84 -206 -158 -388 -165
-405 -7 -16 -23 -55 -35 -85 -12 -30 -26 -64 -31 -75 -20 -46 -199 -487 -199
-491 0 -2 -9 -23 -19 -47 -11 -23 -44 -103 -74 -177 -30 -74 -76 -187 -102
-250 -26 -63 -101 -248 -167 -410 -129 -317 -139 -342 -169 -409 -11 -24 -18
-45 -16 -48 4 -3 579 -7 723 -4 35 1 43 5 47 24 3 12 23 67 44 122 130 328
279 708 298 760 13 33 66 170 120 305 53 135 130 331 170 435 86 220 143 367
245 625 40 102 80 205 90 230 26 67 290 742 387 990 73 185 375 1054 405 1163
6 21 12 36 14 34 2 -2 77 -221 168 -488 90 -266 168 -495 174 -509 7 -14 41
-101 78 -195 69 -178 115 -295 219 -560 35 -88 97 -248 139 -355 42 -107 81
-204 86 -215 8 -19 39 -99 186 -475 31 -80 62 -158 69 -175 7 -16 45 -111 83
-210 39 -99 129 -328 200 -510 71 -181 187 -476 257 -655 70 -179 131 -329
136 -334 8 -9 747 -12 756 -3 2 3 0 13 -6 24 -6 10 -22 47 -36 83 -14 36 -30
74 -35 85 -10 24 -51 126 -239 590 -78 193 -146 359 -151 370 -4 11 -15 36
-23 55 -8 19 -59 143 -112 275 -53 132 -103 254 -110 270 -7 17 -72 176 -145
355 -73 179 -141 344 -151 367 -11 23 -19 45 -19 48 0 4 -7 21 -15 38 -8 18
-30 70 -48 117 -19 47 -110 270 -202 495 -92 226 -176 433 -187 460 -11 28
-26 64 -33 80 -8 17 -28 66 -45 110 -17 44 -38 94 -45 110 -7 17 -77 188 -156
380 -78 193 -163 402 -189 465 -26 63 -87 213 -136 333 l-88 217 -376 0 -375
0 -109 -268z"/>
<path d="M120 7142 c0 -7 191 -479 245 -607 26 -59 128 -311 147 -360 10 -27
25 -63 33 -80 7 -16 40 -97 74 -180 33 -82 82 -204 109 -270 27 -66 134 -327
237 -580 103 -253 243 -595 310 -760 68 -165 148 -363 179 -440 32 -77 66
-159 76 -182 11 -24 20 -47 20 -51 0 -5 6 -22 14 -38 8 -16 44 -103 80 -194
37 -91 71 -174 76 -185 5 -11 41 -99 80 -195 39 -96 75 -184 80 -195 5 -11 23
-56 41 -100 17 -44 37 -93 44 -110 7 -16 57 -138 110 -270 101 -249 189 -464
205 -503 l10 -22 376 2 376 3 34 85 c19 47 38 94 44 105 5 11 43 103 84 205
112 279 215 533 226 555 5 11 39 94 76 185 36 91 71 176 77 190 5 14 11 30 13
35 1 6 16 42 32 80 16 39 91 221 166 405 75 184 141 344 146 355 5 11 44 106
86 210 42 105 84 208 93 230 10 22 24 56 31 75 7 19 21 53 30 75 10 22 41 99
70 170 28 72 59 146 67 165 8 19 19 44 24 55 19 46 304 748 341 840 22 55 46
114 53 130 7 17 48 116 90 220 42 105 83 204 90 220 7 17 56 136 108 265 53
129 116 285 141 345 25 61 46 113 46 118 0 4 -170 7 -378 7 l-379 0 -46 -117
c-25 -65 -76 -194 -112 -288 -37 -93 -90 -231 -120 -305 -121 -311 -182 -467
-266 -685 -49 -126 -94 -239 -99 -250 -5 -11 -29 -72 -54 -135 -51 -132 -91
-235 -171 -440 -31 -80 -88 -224 -125 -320 -143 -368 -201 -516 -215 -545 -7
-16 -17 -42 -20 -58 -4 -15 -11 -30 -16 -33 -5 -3 -9 -12 -9 -21 0 -8 -7 -29
-15 -46 -24 -54 -222 -569 -238 -622 -20 -64 -254 -761 -269 -798 -11 -28 -17
-11 -283 783 -25 74 -50 144 -55 155 -5 11 -55 137 -110 280 -55 143 -105 269
-110 280 -8 19 -118 298 -322 820 -95 244 -133 341 -153 390 -7 17 -36 91 -65
165 -29 74 -56 144 -61 155 -4 11 -31 79 -59 150 -28 72 -55 139 -60 150 -5
11 -54 137 -110 280 -162 416 -241 618 -255 650 -7 17 -46 114 -86 218 l-73
187 -378 0 c-208 0 -378 -3 -378 -8z"/>
</g>
</svg>
